<!DOCTYPE svg PUBLIC "-//W3C//DTD SVG 1.1//EN" "http://www.w3.org/Graphics/SVG/1.1/DTD/svg11.dtd">
<!-- Uploaded to: SVG Repo, www.svgrepo.com, Transformed by: SVG Repo Mixer Tools -->
<svg fill="#000000" width="800px" height="800px" viewBox="0 0 32 32" style="fill-rule:evenodd;clip-rule:evenodd;stroke-linejoin:round;stroke-miterlimit:2;" version="1.1" xml:space="preserve" xmlns="http://www.w3.org/2000/svg" xmlns:serif="http://www.serif.com/" xmlns:xlink="http://www.w3.org/1999/xlink">
<g id="SVGRepo_bgCarrier" stroke-width="0"/>
<g id="SVGRepo_tracerCarrier" stroke-linecap="round" stroke-linejoin="round"/>
<g id="SVGRepo_iconCarrier"> <g transform="matrix(1,0,0,1,-336,-144)"> <g transform="matrix(0.875,0,0,0.875,42.25,19.125)"> <path d="M340.924,147.74C341.224,146.789 342.107,146.143 343.104,146.143C347.705,146.143 360.491,146.143 364.985,146.143C365.965,146.143 366.836,146.768 367.15,147.697C368.119,150.386 370,155.73 370,157C370,159.208 368.208,161 366,161C363.792,161 362,159.208 362,157C362,159.208 360.208,161 358,161C355.792,161 354,159.208 354,157C354,159.208 352.208,161 350,161C347.792,161 346,159.208 346,157C346,159.208 344.208,161 342,161C340.53,161 339.244,160.205 338.549,159.022C338.057,158.185 337.944,157.179 338.236,156.254C338.787,154.507 340.172,150.121 340.924,147.74Z" style="fill:#ffffff;"/> </g> <g transform="matrix(1,0,0,1.549,0,-94.9774)"> <path d="M341.026,160.675C341.026,160.675 341.009,168.545 341.003,171.707C341.002,172.05 341.212,172.379 341.588,172.621C341.963,172.864 342.472,173 343.003,173C347.188,173 356.817,173 361,173C361.53,173 362.039,172.864 362.414,172.622C362.789,172.38 363,172.051 363,171.709C363,168.547 363,160.675 363,160.675" style="fill:#ffffff;"/> </g> <path d="M340.024,160.752L340.002,170.994C340,171.79 340.316,172.555 340.879,173.119C341.441,173.683 342.205,174 343.002,174L360.998,174C361.794,174 362.557,173.684 363.119,173.121C363.682,172.559 363.998,171.796 363.998,171L363.998,160.744C365.746,160.127 367,158.459 367,156.5C367,155.346 365.332,150.477 364.45,148.027C364.034,146.815 362.894,146 361.612,146C357.679,146 346.492,146 342.466,146C341.157,146 339.999,146.849 339.605,148.097L337.253,155.546C336.912,156.626 337.044,157.799 337.618,158.776L337.618,158.776C338.155,159.691 339.007,160.399 340.024,160.752ZM361.998,160.972C360.79,160.838 359.726,160.225 359,159.327C358.175,160.347 356.913,161 355.5,161C354.087,161 352.825,160.347 352,159.327C351.175,160.347 349.913,161 348.5,161C347.087,161 345.825,160.347 345,159.327C344.278,160.219 343.222,160.831 342.023,160.97L342.002,170.998C342.002,171.263 342.107,171.518 342.294,171.706C342.482,171.894 342.736,172 343.002,172L348,172L348,168C348,166.343 349.343,165 351,165L353,165C354.657,165 356,166.343 356,168L356,172L360.998,172C361.263,172 361.517,171.895 361.705,171.707C361.893,171.52 361.998,171.265 361.998,171L361.998,160.972ZM354,172L350,172L350,168C350,167.448 350.448,167 351,167C351,167 353,167 353,167C353.552,167 354,167.448 354,168L354,172ZM341.512,148.699C341.644,148.283 342.03,148 342.466,148L361.612,148C362.041,148 362.422,148.274 362.559,148.68L362.562,148.689C363.38,150.957 365,155.434 365,156.5C365,157.88 363.88,159 362.5,159C361.12,159 360,157.88 360,156.5C360,154.986 358,154.986 358,156.5C358,157.88 356.88,159 355.5,159C354.12,159 353,157.88 353,156.5C353,155.004 351,155.004 351,156.5C351,157.88 349.88,159 348.5,159C347.12,159 346,157.88 346,156.5C346,155.003 344,155.003 344,156.5C344,157.88 342.88,159 341.5,159C340.581,159 339.777,158.503 339.342,157.763C339.056,157.275 338.99,156.688 339.16,156.148L341.512,148.699Z" style="fill:#000000;"/> </g> </g>
</svg>